<svg width="43" height="42" viewBox="0 0 43 42" fill="none" xmlns="http://www.w3.org/2000/svg">
<circle cx="21.3708" cy="21" r="20.9902" fill="white"/>
<path d="M24.8505 11.7471H17.8912C14.8052 11.7471 12.3042 14.2995 12.3042 17.4498V24.552C12.3042 27.7005 14.8052 30.253 17.8912 30.253H24.8505C27.9365 30.253 30.4375 27.7005 30.4375 24.552V17.4498C30.4375 14.2995 27.9365 11.7471 24.8505 11.7471ZM28.6975 23.8701C28.6975 26.4154 26.6755 28.4772 24.1832 28.4772H18.5594C16.0654 28.4772 14.0442 26.4154 14.0442 23.8701V18.1299C14.0442 15.5864 16.0654 13.5229 18.5594 13.5229H24.1832C26.6755 13.5229 28.6975 15.5864 28.6975 18.1299V23.8701Z" fill="#262F3C"/>
<path d="M21.6124 16.1582C18.9739 16.1582 16.8354 18.3397 16.8354 21.0325C16.8354 23.7234 18.9739 25.9067 21.6124 25.9067C24.2501 25.9067 26.3885 23.7234 26.3885 21.0325C26.3894 18.3397 24.2509 16.1582 21.6124 16.1582ZM21.6124 23.9647C20.0239 23.9647 18.7384 22.6509 18.7384 21.0316C18.7384 19.4104 20.0239 18.0984 21.6124 18.0984C23.1992 18.0984 24.4856 19.4104 24.4856 21.0316C24.4856 22.6509 23.1992 23.9647 21.6124 23.9647Z" fill="#262F3C"/>
<path d="M27.2725 16.0813C27.2725 16.7659 26.7278 17.3208 26.057 17.3208C25.3862 17.3208 24.8433 16.7659 24.8433 16.0813C24.8433 15.3967 25.3871 14.8408 26.057 14.8408C26.7278 14.8417 27.2725 15.3976 27.2725 16.0813Z" fill="#262F3C"/>
</svg>
