<svg width="162" height="36" viewBox="0 0 162 36" fill="none" xmlns="http://www.w3.org/2000/svg">
<g id="top_logo">
<g id="Group 127">
<g id="Group 126">
<path id="Vector" d="M47.7033 29.8144C46.0241 29.105 44.5895 28.0633 43.4019 26.6916L46.8592 23.2343C47.8066 24.2019 48.9089 25.037 49.8967 25.4748C50.8845 25.9126 52.0205 26.1303 53.3069 26.1303C54.7684 26.1303 55.8977 25.8699 56.6924 25.3468C57.4871 24.8237 57.8845 24.1098 57.8845 23.2051C57.8845 22.691 57.7476 22.2577 57.4759 21.9075C57.202 21.5572 56.7485 21.2497 56.1154 20.9825C55.4801 20.7176 54.5776 20.4527 53.4035 20.1878L52.126 19.8847C49.4904 19.2449 47.5192 18.3513 46.2104 17.2064C44.9015 16.0591 44.246 14.6291 44.246 12.9139C44.246 11.495 44.6636 10.2109 45.4987 9.06589C46.3339 7.91868 47.4743 7.02742 48.9201 6.38759C50.3659 5.74775 51.9891 5.42896 53.7874 5.42896C55.5856 5.42896 57.2649 5.77694 58.8723 6.47065C60.4798 7.16436 61.8694 8.14319 63.0413 9.40714L59.5616 12.8869C58.7578 12.0293 57.7566 11.2503 56.8249 10.8215C55.8932 10.3927 54.8717 10.1772 53.7649 10.1772C52.5436 10.1772 51.5648 10.4197 50.8239 10.9023C50.0853 11.385 49.7149 12.0181 49.7149 12.7971C49.7149 13.1878 49.8316 13.5178 50.0651 13.7917C50.2986 14.0656 50.6757 14.3103 51.1988 14.5281C51.7197 14.7458 52.4471 14.9726 53.3787 15.2061L54.7033 15.5338C57.7072 16.2208 59.9095 17.1749 61.3059 18.4007C62.7046 19.6265 63.4028 21.1891 63.4028 23.0906C63.4028 24.6037 62.9762 25.9485 62.1254 27.1271C61.2745 28.3058 60.0802 29.2262 58.5468 29.8885C57.0134 30.5508 55.2489 30.8831 53.2575 30.8831C51.2662 30.8831 49.3804 30.5284 47.7033 29.8189V29.8144Z" fill="white"/>
<path id="Vector_2" d="M71.3255 29.2169C69.4643 28.1101 67.9961 26.5813 66.923 24.6303C65.8499 22.6817 65.311 20.5197 65.311 18.1489C65.311 15.7782 65.8476 13.5781 66.923 11.6451C67.9961 9.71212 69.4643 8.19 71.3255 7.0832C73.1866 5.9764 75.252 5.42188 77.5217 5.42188C79.7915 5.42188 81.9018 5.9764 83.7629 7.0832C85.6241 8.19 87.0878 9.71212 88.1542 11.6451C89.2206 13.5803 89.7549 15.7468 89.7549 18.1489C89.7549 20.5511 89.2206 22.6794 88.1542 24.6303C87.0878 26.5813 85.6241 28.1079 83.7629 29.2169C81.9018 30.3237 79.8206 30.8782 77.5217 30.8782C75.2228 30.8782 73.1866 30.3237 71.3255 29.2169ZM81.1183 24.7605C82.169 24.114 82.9862 23.216 83.5699 22.071C84.1513 20.9238 84.4431 19.6194 84.4431 18.1512C84.4431 16.6829 84.1558 15.3561 83.5811 14.2089C83.0063 13.0617 82.1892 12.1704 81.1295 11.5306C80.0699 10.8908 78.8755 10.572 77.5442 10.572C76.2129 10.572 75.0028 10.8908 73.9589 11.5306C72.9149 12.1704 72.0933 13.064 71.4961 14.2089C70.8989 15.3561 70.6003 16.6695 70.6003 18.1512C70.6003 19.6329 70.8989 20.9238 71.4961 22.071C72.0933 23.2182 72.9149 24.114 73.9589 24.7605C75.0028 25.4071 76.1904 25.7304 77.5217 25.7304C78.853 25.7304 80.0676 25.4071 81.1183 24.7605Z" fill="white"/>
<path id="Vector_3" d="M133.827 9.56397H133.574C132.947 8.43696 132.233 7.53221 131.297 6.86094C129.959 5.90232 128.336 5.42188 126.43 5.42188C124.326 5.42188 122.436 5.9764 120.757 7.0832C119.077 8.19 117.764 9.71212 116.819 11.6451C115.874 13.5803 115.4 15.7468 115.4 18.1489C115.4 20.5511 115.872 22.6996 116.819 24.6415C117.764 26.5835 119.077 28.1079 120.757 29.2147C122.436 30.3215 124.326 30.876 126.43 30.876C128.336 30.876 129.959 30.3955 131.297 29.4369C132.233 28.7657 132.947 27.8632 133.574 26.7339H133.827V30.2205H139.206V6.07519H133.827V9.56172V9.56397ZM130.83 24.7605C129.831 25.4071 128.697 25.7304 127.427 25.7304C126.156 25.7304 125.025 25.4071 124.035 24.7605C123.044 24.114 122.263 23.2137 121.697 22.0575C121.129 20.9036 120.847 19.6015 120.847 18.1512C120.847 16.7009 121.129 15.3561 121.697 14.2089C122.265 13.0617 123.044 12.1704 124.035 11.5306C125.025 10.8908 126.156 10.572 127.427 10.572C128.697 10.572 129.833 10.8908 130.83 11.5306C131.829 12.1704 132.608 13.064 133.167 14.2089C133.726 15.3561 134.007 16.6695 134.007 18.1512C134.007 19.6329 133.726 20.9238 133.167 22.071C132.608 23.2182 131.829 24.114 130.83 24.7605Z" fill="white"/>
<path id="Vector_4" d="M104.873 30.8782C102.511 30.8782 100.374 30.3192 98.4609 29.1989C96.5481 28.0786 95.044 26.552 93.9462 24.6168C92.8483 22.6816 92.3005 20.5264 92.3005 18.1511C92.3005 15.7759 92.8483 13.578 93.9462 11.6608C95.044 9.74351 96.5481 8.22362 98.4609 7.10335C100.374 5.98308 102.511 5.42407 104.873 5.42407C106.736 5.42407 108.474 5.79001 110.086 6.51965C111.698 7.24928 113.312 8.45038 114.443 9.80862L110.797 13.4545C110.099 12.6059 109.114 11.8314 108.114 11.4071C107.118 10.9828 106.036 10.7717 104.873 10.7717C103.508 10.7717 102.295 11.086 101.231 11.7146C100.167 12.3432 99.3365 13.2076 98.7371 14.3121C98.1376 15.4144 97.8391 16.6963 97.8391 18.1556C97.8391 19.6149 98.1376 20.8968 98.7371 21.9991C99.3365 23.1014 100.167 23.977 101.231 24.6213C102.295 25.2656 103.51 25.5889 104.873 25.5889C106.036 25.5889 107.118 25.3779 108.114 24.9536C109.111 24.5292 110.101 23.7525 110.8 22.9038L114.443 26.5475C113.312 27.9058 111.698 29.062 110.086 29.7916C108.471 30.5212 106.734 30.8872 104.873 30.8872V30.8782Z" fill="white"/>
<path id="Vector_5" d="M148.426 6.07743V9.63355H148.68C148.68 9.63355 150.343 5.54761 154.735 5.54761C159.416 5.54761 161.297 8.92636 161.297 8.92636L157.669 12.5543C157.669 12.5543 156.376 10.8391 153.846 10.8391C151.316 10.8391 148.428 12.0133 148.428 18.5688V30.2205H143.022V6.07518H148.426V6.07743Z" fill="white"/>
</g>
<g id="Group 125">
<path id="Vector_6" d="M1.9696 22.5267H15.5969L24.348 13.7756C24.348 13.7756 28.2903 9.84676 28.6899 1.951C28.7258 1.24382 28.1601 0.651123 27.4507 0.651123H14.4183C13.6527 0.651123 13.0241 1.24157 12.9635 2.00488C12.7929 4.2095 11.7916 8.82977 6.84582 13.7756L0.833635 19.7877C-0.176627 20.798 0.53952 22.5267 1.96736 22.5267H1.9696Z" fill="url(#paint0_linear_5942_3933)"/>
<path id="Vector_7" d="M37.9754 13.7756H24.3481L15.5969 22.5267C15.5969 22.5267 11.6547 26.4555 11.255 34.3513C11.2191 35.0585 11.7849 35.6512 12.4943 35.6512H25.5267C26.2922 35.6512 26.9208 35.0607 26.9815 34.2974C27.1521 32.0928 28.1534 27.4725 33.0992 22.5267L39.1113 16.5146C40.1216 15.5043 39.4054 13.7756 37.9776 13.7756H37.9754Z" fill="url(#paint1_linear_5942_3933)"/>
<path id="Vector_8" d="M37.9754 13.7756H24.3481L15.5969 22.5267C15.5969 22.5267 11.6547 26.4555 11.255 34.3513C11.2191 35.0585 11.7849 35.6512 12.4943 35.6512H25.5267C26.2743 35.6512 26.9231 35.0428 26.9815 34.2974C27.1521 32.0928 28.1534 27.4725 33.0992 22.5267L39.1113 16.5146C40.1216 15.5043 39.4054 13.7756 37.9776 13.7756H37.9754Z" fill="url(#paint2_linear_5942_3933)"/>
</g>
</g>
</g>
<defs>
<linearGradient id="paint0_linear_5942_3933" x1="14.526" y1="22.4683" x2="14.526" y2="0.592752" gradientUnits="userSpaceOnUse">
<stop offset="0.2" stop-color="#3393FF"/>
<stop offset="1" stop-color="#005AFF"/>
</linearGradient>
<linearGradient id="paint1_linear_5942_3933" x1="25.4167" y1="35.6512" x2="25.4167" y2="13.7756" gradientUnits="userSpaceOnUse">
<stop offset="0.2" stop-color="#3393FF"/>
<stop offset="1" stop-color="#005AFF"/>
</linearGradient>
<linearGradient id="paint2_linear_5942_3933" x1="31.1819" y1="30.5841" x2="19.3596" y2="18.7641" gradientUnits="userSpaceOnUse">
<stop offset="0.6" stop-color="#3393FF" stop-opacity="0"/>
<stop offset="1" stop-color="#0041E6"/>
</linearGradient>
</defs>
</svg>
